<mxfile host="app.diagrams.net" modified="2023-12-09T03:55:48.482Z" agent="Mozilla/5.0 (Windows NT 10.0; Win64; x64) AppleWebKit/537.36 (KHTML, like Gecko) Chrome/120.0.0.0 Safari/537.36" etag="qKedVtMLkFIFoHNsECqK" version="22.1.7" type="github">
  <diagram name="Page-1" id="3VM8d6KBsBUF3XmxzF1J">
    <mxGraphModel dx="836" dy="528" grid="1" gridSize="10" guides="1" tooltips="1" connect="1" arrows="1" fold="1" page="1" pageScale="1" pageWidth="850" pageHeight="1100" math="0" shadow="0">
      <root>
        <mxCell id="0" />
        <mxCell id="1" parent="0" />
        <mxCell id="Tr09Fx-grCpTaGp0jl0i-1" value="&lt;font style=&quot;font-size: 12px;&quot;&gt;&lt;b&gt;เริ่ม&lt;/b&gt;&lt;/font&gt;" style="rounded=1;whiteSpace=wrap;html=1;fillColor=#d5e8d4;strokeColor=#82b366;" vertex="1" parent="1">
          <mxGeometry x="325" y="40" width="100" height="40" as="geometry" />
        </mxCell>
        <mxCell id="Tr09Fx-grCpTaGp0jl0i-3" value="&lt;b&gt;รับค่าอายุ&lt;/b&gt;" style="shape=parallelogram;perimeter=parallelogramPerimeter;whiteSpace=wrap;html=1;fixedSize=1;fillColor=#dae8fc;strokeColor=#6c8ebf;" vertex="1" parent="1">
          <mxGeometry x="315" y="120" width="120" height="60" as="geometry" />
        </mxCell>
        <mxCell id="Tr09Fx-grCpTaGp0jl0i-4" value="&lt;b&gt;อายุมากกว่า 10 ปี&lt;/b&gt;" style="html=1;whiteSpace=wrap;aspect=fixed;shape=isoRectangle;" vertex="1" parent="1">
          <mxGeometry x="300" y="210" width="150" height="90" as="geometry" />
        </mxCell>
        <mxCell id="Tr09Fx-grCpTaGp0jl0i-5" value="&lt;b&gt;10 ปี &amp;gt; อายุ &amp;gt; 3 ปี&lt;br&gt;&lt;/b&gt;" style="html=1;whiteSpace=wrap;aspect=fixed;shape=isoRectangle;" vertex="1" parent="1">
          <mxGeometry x="300" y="330" width="150" height="90" as="geometry" />
        </mxCell>
        <mxCell id="Tr09Fx-grCpTaGp0jl0i-6" value="&lt;b&gt;3 ปี &amp;gt;= อายุ &amp;gt; 1 ปี&lt;br&gt;&lt;/b&gt;" style="html=1;whiteSpace=wrap;aspect=fixed;shape=isoRectangle;" vertex="1" parent="1">
          <mxGeometry x="300" y="450" width="150" height="90" as="geometry" />
        </mxCell>
        <mxCell id="Tr09Fx-grCpTaGp0jl0i-7" value="&lt;b&gt;1 ปี &amp;gt;= อายุ&lt;br&gt;&lt;/b&gt;" style="html=1;whiteSpace=wrap;aspect=fixed;shape=isoRectangle;" vertex="1" parent="1">
          <mxGeometry x="300" y="580" width="150" height="90" as="geometry" />
        </mxCell>
        <mxCell id="Tr09Fx-grCpTaGp0jl0i-14" value="&lt;font style=&quot;font-size: 12px;&quot;&gt;&lt;b&gt;จบโปรแกรม&lt;/b&gt;&lt;/font&gt;" style="rounded=1;whiteSpace=wrap;html=1;fillColor=#f8cecc;strokeColor=#b85450;" vertex="1" parent="1">
          <mxGeometry x="325" y="770" width="100" height="40" as="geometry" />
        </mxCell>
        <mxCell id="Tr09Fx-grCpTaGp0jl0i-15" value="" style="endArrow=classic;html=1;rounded=0;exitX=0.5;exitY=1;exitDx=0;exitDy=0;entryX=0.5;entryY=0;entryDx=0;entryDy=0;" edge="1" parent="1" source="Tr09Fx-grCpTaGp0jl0i-1" target="Tr09Fx-grCpTaGp0jl0i-3">
          <mxGeometry width="50" height="50" relative="1" as="geometry">
            <mxPoint x="220" y="450" as="sourcePoint" />
            <mxPoint x="270" y="400" as="targetPoint" />
          </mxGeometry>
        </mxCell>
        <mxCell id="Tr09Fx-grCpTaGp0jl0i-16" value="" style="endArrow=classic;html=1;rounded=0;exitX=0.5;exitY=1;exitDx=0;exitDy=0;" edge="1" parent="1" source="Tr09Fx-grCpTaGp0jl0i-3" target="Tr09Fx-grCpTaGp0jl0i-4">
          <mxGeometry width="50" height="50" relative="1" as="geometry">
            <mxPoint x="370" y="200" as="sourcePoint" />
            <mxPoint x="385" y="130" as="targetPoint" />
          </mxGeometry>
        </mxCell>
        <mxCell id="Tr09Fx-grCpTaGp0jl0i-17" value="" style="endArrow=classic;html=1;rounded=0;entryX=0.493;entryY=-0.014;entryDx=0;entryDy=0;entryPerimeter=0;exitX=0.49;exitY=0.986;exitDx=0;exitDy=0;exitPerimeter=0;" edge="1" parent="1" source="Tr09Fx-grCpTaGp0jl0i-4" target="Tr09Fx-grCpTaGp0jl0i-5">
          <mxGeometry width="50" height="50" relative="1" as="geometry">
            <mxPoint x="290" y="260" as="sourcePoint" />
            <mxPoint x="340" y="210" as="targetPoint" />
          </mxGeometry>
        </mxCell>
        <mxCell id="Tr09Fx-grCpTaGp0jl0i-18" value="" style="endArrow=classic;html=1;rounded=0;entryX=0.503;entryY=0.002;entryDx=0;entryDy=0;entryPerimeter=0;exitX=0.524;exitY=0.967;exitDx=0;exitDy=0;exitPerimeter=0;" edge="1" parent="1" source="Tr09Fx-grCpTaGp0jl0i-5" target="Tr09Fx-grCpTaGp0jl0i-6">
          <mxGeometry width="50" height="50" relative="1" as="geometry">
            <mxPoint x="290" y="440" as="sourcePoint" />
            <mxPoint x="340" y="390" as="targetPoint" />
          </mxGeometry>
        </mxCell>
        <mxCell id="Tr09Fx-grCpTaGp0jl0i-19" value="" style="endArrow=classic;html=1;rounded=0;exitX=0.503;exitY=0.983;exitDx=0;exitDy=0;exitPerimeter=0;" edge="1" parent="1" source="Tr09Fx-grCpTaGp0jl0i-6" target="Tr09Fx-grCpTaGp0jl0i-7">
          <mxGeometry width="50" height="50" relative="1" as="geometry">
            <mxPoint x="290" y="440" as="sourcePoint" />
            <mxPoint x="340" y="390" as="targetPoint" />
          </mxGeometry>
        </mxCell>
        <mxCell id="Tr09Fx-grCpTaGp0jl0i-21" value="" style="endArrow=classic;html=1;rounded=0;entryX=0;entryY=0.5;entryDx=0;entryDy=0;entryPerimeter=0;exitX=1.026;exitY=0.481;exitDx=0;exitDy=0;exitPerimeter=0;" edge="1" parent="1" source="Tr09Fx-grCpTaGp0jl0i-4">
          <mxGeometry width="50" height="50" relative="1" as="geometry">
            <mxPoint x="410" y="300" as="sourcePoint" />
            <mxPoint x="520" y="255" as="targetPoint" />
          </mxGeometry>
        </mxCell>
        <mxCell id="Tr09Fx-grCpTaGp0jl0i-22" value="" style="endArrow=classic;html=1;rounded=0;exitX=1.003;exitY=0.513;exitDx=0;exitDy=0;exitPerimeter=0;" edge="1" parent="1" source="Tr09Fx-grCpTaGp0jl0i-5">
          <mxGeometry width="50" height="50" relative="1" as="geometry">
            <mxPoint x="410" y="300" as="sourcePoint" />
            <mxPoint x="510" y="376" as="targetPoint" />
          </mxGeometry>
        </mxCell>
        <mxCell id="Tr09Fx-grCpTaGp0jl0i-23" value="" style="endArrow=classic;html=1;rounded=0;exitX=1.003;exitY=0.471;exitDx=0;exitDy=0;exitPerimeter=0;" edge="1" parent="1" source="Tr09Fx-grCpTaGp0jl0i-6">
          <mxGeometry width="50" height="50" relative="1" as="geometry">
            <mxPoint x="410" y="550" as="sourcePoint" />
            <mxPoint x="500" y="495" as="targetPoint" />
          </mxGeometry>
        </mxCell>
        <mxCell id="Tr09Fx-grCpTaGp0jl0i-24" value="" style="endArrow=classic;html=1;rounded=0;exitX=0.998;exitY=0.481;exitDx=0;exitDy=0;exitPerimeter=0;" edge="1" parent="1" source="Tr09Fx-grCpTaGp0jl0i-7">
          <mxGeometry width="50" height="50" relative="1" as="geometry">
            <mxPoint x="410" y="550" as="sourcePoint" />
            <mxPoint x="490" y="620" as="targetPoint" />
          </mxGeometry>
        </mxCell>
        <mxCell id="Tr09Fx-grCpTaGp0jl0i-25" value="รับประทานครั้งละ 2 ช้อนชา" style="shape=parallelogram;perimeter=parallelogramPerimeter;whiteSpace=wrap;html=1;fixedSize=1;" vertex="1" parent="1">
          <mxGeometry x="510" y="235" width="180" height="40" as="geometry" />
        </mxCell>
        <mxCell id="Tr09Fx-grCpTaGp0jl0i-26" value="รับประทานครั้งละ 1 ช้อนชา" style="shape=parallelogram;perimeter=parallelogramPerimeter;whiteSpace=wrap;html=1;fixedSize=1;" vertex="1" parent="1">
          <mxGeometry x="500" y="357.5" width="170" height="35" as="geometry" />
        </mxCell>
        <mxCell id="Tr09Fx-grCpTaGp0jl0i-27" value="รับประทานครั้งละ 1/2 ช้อนชา" style="shape=parallelogram;perimeter=parallelogramPerimeter;whiteSpace=wrap;html=1;fixedSize=1;" vertex="1" parent="1">
          <mxGeometry x="490" y="475" width="180" height="40" as="geometry" />
        </mxCell>
        <mxCell id="Tr09Fx-grCpTaGp0jl0i-28" value="ห้ามรับประทาน" style="shape=parallelogram;perimeter=parallelogramPerimeter;whiteSpace=wrap;html=1;fixedSize=1;" vertex="1" parent="1">
          <mxGeometry x="480" y="590" width="180" height="50" as="geometry" />
        </mxCell>
        <mxCell id="Tr09Fx-grCpTaGp0jl0i-30" style="edgeStyle=orthogonalEdgeStyle;rounded=0;orthogonalLoop=1;jettySize=auto;html=1;exitX=0.25;exitY=0;exitDx=0;exitDy=0;entryX=0.288;entryY=0.06;entryDx=0;entryDy=0;entryPerimeter=0;" edge="1" parent="1" source="Tr09Fx-grCpTaGp0jl0i-27" target="Tr09Fx-grCpTaGp0jl0i-27">
          <mxGeometry relative="1" as="geometry" />
        </mxCell>
        <mxCell id="Tr09Fx-grCpTaGp0jl0i-31" value="" style="ellipse;whiteSpace=wrap;html=1;aspect=fixed;" vertex="1" parent="1">
          <mxGeometry x="365" y="710" width="20" height="20" as="geometry" />
        </mxCell>
        <mxCell id="Tr09Fx-grCpTaGp0jl0i-32" value="" style="endArrow=classic;html=1;rounded=0;entryX=0.5;entryY=0;entryDx=0;entryDy=0;exitX=0.5;exitY=1.011;exitDx=0;exitDy=0;exitPerimeter=0;" edge="1" parent="1" source="Tr09Fx-grCpTaGp0jl0i-7" target="Tr09Fx-grCpTaGp0jl0i-31">
          <mxGeometry width="50" height="50" relative="1" as="geometry">
            <mxPoint x="400" y="660" as="sourcePoint" />
            <mxPoint x="450" y="610" as="targetPoint" />
          </mxGeometry>
        </mxCell>
        <mxCell id="Tr09Fx-grCpTaGp0jl0i-33" value="" style="endArrow=classic;html=1;rounded=0;entryX=0.5;entryY=0;entryDx=0;entryDy=0;exitX=0.5;exitY=1;exitDx=0;exitDy=0;" edge="1" parent="1" source="Tr09Fx-grCpTaGp0jl0i-31" target="Tr09Fx-grCpTaGp0jl0i-14">
          <mxGeometry width="50" height="50" relative="1" as="geometry">
            <mxPoint x="400" y="660" as="sourcePoint" />
            <mxPoint x="450" y="610" as="targetPoint" />
          </mxGeometry>
        </mxCell>
        <mxCell id="Tr09Fx-grCpTaGp0jl0i-34" value="" style="endArrow=none;html=1;rounded=0;" edge="1" parent="1">
          <mxGeometry width="50" height="50" relative="1" as="geometry">
            <mxPoint x="750" y="720" as="sourcePoint" />
            <mxPoint x="750" y="250" as="targetPoint" />
          </mxGeometry>
        </mxCell>
        <mxCell id="Tr09Fx-grCpTaGp0jl0i-35" value="" style="endArrow=classic;html=1;rounded=0;entryX=1;entryY=0.5;entryDx=0;entryDy=0;" edge="1" parent="1" target="Tr09Fx-grCpTaGp0jl0i-31">
          <mxGeometry width="50" height="50" relative="1" as="geometry">
            <mxPoint x="750" y="720" as="sourcePoint" />
            <mxPoint x="400" y="520" as="targetPoint" />
          </mxGeometry>
        </mxCell>
        <mxCell id="Tr09Fx-grCpTaGp0jl0i-36" value="" style="endArrow=none;html=1;rounded=0;" edge="1" parent="1">
          <mxGeometry width="50" height="50" relative="1" as="geometry">
            <mxPoint x="680" y="254.74" as="sourcePoint" />
            <mxPoint x="750" y="255" as="targetPoint" />
          </mxGeometry>
        </mxCell>
        <mxCell id="Tr09Fx-grCpTaGp0jl0i-37" value="" style="endArrow=none;html=1;rounded=0;exitX=1;exitY=0.5;exitDx=0;exitDy=0;" edge="1" parent="1" source="Tr09Fx-grCpTaGp0jl0i-26">
          <mxGeometry width="50" height="50" relative="1" as="geometry">
            <mxPoint x="690" y="265" as="sourcePoint" />
            <mxPoint x="750" y="375" as="targetPoint" />
          </mxGeometry>
        </mxCell>
        <mxCell id="Tr09Fx-grCpTaGp0jl0i-38" value="" style="endArrow=none;html=1;rounded=0;exitX=1;exitY=0.5;exitDx=0;exitDy=0;" edge="1" parent="1">
          <mxGeometry width="50" height="50" relative="1" as="geometry">
            <mxPoint x="660" y="494.57" as="sourcePoint" />
            <mxPoint x="750" y="494.57" as="targetPoint" />
          </mxGeometry>
        </mxCell>
        <mxCell id="Tr09Fx-grCpTaGp0jl0i-39" value="" style="endArrow=none;html=1;rounded=0;exitX=1;exitY=0.5;exitDx=0;exitDy=0;" edge="1" parent="1" source="Tr09Fx-grCpTaGp0jl0i-28">
          <mxGeometry width="50" height="50" relative="1" as="geometry">
            <mxPoint x="660" y="614.5699999999999" as="sourcePoint" />
            <mxPoint x="750" y="614.5699999999999" as="targetPoint" />
          </mxGeometry>
        </mxCell>
      </root>
    </mxGraphModel>
  </diagram>
</mxfile>
